<?xml version="1.0" encoding="UTF-8" standalone="no"?>
<!DOCTYPE svg PUBLIC "-//W3C//DTD SVG 1.1//EN"
 "http://www.w3.org/Graphics/SVG/1.1/DTD/svg11.dtd">
<!-- Generated by graphviz version 2.43.0 (0)
 -->
<!-- Title: %3 Pages: 1 -->
<svg width="129pt" height="212pt"
 viewBox="0.00 0.00 129.04 212.17" xmlns="http://www.w3.org/2000/svg" xmlns:xlink="http://www.w3.org/1999/xlink">
<g id="graph0" class="graph" transform="scale(1 1) rotate(0) translate(4 208.17)">
<title>%3</title>
<polygon fill="white" stroke="transparent" points="-4,4 -4,-208.17 125.04,-208.17 125.04,4 -4,4"/>
<!-- A -->
<g id="node1" class="node">
<title>A</title>
<ellipse fill="none" stroke="black" cx="44.02" cy="-192.15" rx="35.21" ry="12.04"/>
<text text-anchor="start" x="20.02" y="-188.45" font-family="Times,serif" font-size="14.00">x2 ≤ 2</text>
</g>
<!-- L -->
<g id="node2" class="node">
<title>L</title>
<ellipse fill="none" stroke="black" cx="12.02" cy="-132.1" rx="12.04" ry="12.04"/>
<text text-anchor="middle" x="12.02" y="-128.4" font-family="Times,serif" font-size="14.00"> </text>
</g>
<!-- A&#45;&gt;L -->
<g id="edge1" class="edge">
<title>A&#45;&gt;L</title>
<path fill="none" stroke="black" d="M38,-180.23C33.65,-172.33 27.65,-161.46 22.52,-152.15"/>
<polygon fill="black" stroke="black" points="25.48,-150.26 17.58,-143.2 19.35,-153.64 25.48,-150.26"/>
</g>
<!-- R -->
<g id="node3" class="node">
<title>R</title>
<ellipse fill="none" stroke="black" cx="77.02" cy="-132.1" rx="35.21" ry="12.04"/>
<text text-anchor="start" x="53.02" y="-128.4" font-family="Times,serif" font-size="14.00">x1 ≤ 4</text>
</g>
<!-- A&#45;&gt;R -->
<g id="edge2" class="edge">
<title>A&#45;&gt;R</title>
<path fill="none" stroke="black" d="M50.23,-180.23C54.61,-172.53 60.6,-161.99 65.8,-152.84"/>
<polygon fill="black" stroke="black" points="68.94,-154.4 70.84,-143.97 62.86,-150.94 68.94,-154.4"/>
</g>
<!-- RL -->
<g id="node4" class="node">
<title>RL</title>
<ellipse fill="none" stroke="black" cx="44.02" cy="-72.06" rx="35.21" ry="12.04"/>
<text text-anchor="start" x="20.02" y="-68.36" font-family="Times,serif" font-size="14.00">x2 ≤ 4</text>
</g>
<!-- R&#45;&gt;RL -->
<g id="edge3" class="edge">
<title>R&#45;&gt;RL</title>
<path fill="none" stroke="black" d="M70.81,-120.19C66.43,-112.49 60.45,-101.95 55.24,-92.8"/>
<polygon fill="black" stroke="black" points="58.19,-90.89 50.2,-83.93 52.1,-94.35 58.19,-90.89"/>
</g>
<!-- RR -->
<g id="node5" class="node">
<title>RR</title>
<ellipse fill="none" stroke="black" cx="109.02" cy="-72.06" rx="12.04" ry="12.04"/>
<text text-anchor="middle" x="109.02" y="-68.36" font-family="Times,serif" font-size="14.00"> </text>
</g>
<!-- R&#45;&gt;RR -->
<g id="edge4" class="edge">
<title>R&#45;&gt;RR</title>
<path fill="none" stroke="black" d="M83.04,-120.19C87.39,-112.29 93.39,-101.42 98.52,-92.1"/>
<polygon fill="black" stroke="black" points="101.69,-93.6 103.46,-83.15 95.56,-90.22 101.69,-93.6"/>
</g>
<!-- RLL -->
<g id="node6" class="node">
<title>RLL</title>
<ellipse fill="black" stroke="black" cx="23.02" cy="-12.02" rx="12.04" ry="12.04"/>
<text text-anchor="middle" x="23.02" y="-8.32" font-family="Times,serif" font-size="14.00"> </text>
</g>
<!-- RL&#45;&gt;RLL -->
<g id="edge5" class="edge">
<title>RL&#45;&gt;RLL</title>
<path fill="none" stroke="black" d="M39.97,-59.87C37.26,-52.39 33.62,-42.33 30.41,-33.44"/>
<polygon fill="black" stroke="black" points="33.61,-32 26.92,-23.79 27.03,-34.38 33.61,-32"/>
</g>
<!-- RLR -->
<g id="node7" class="node">
<title>RLR</title>
<ellipse fill="none" stroke="black" cx="65.02" cy="-12.02" rx="12.04" ry="12.04"/>
<text text-anchor="middle" x="65.02" y="-8.32" font-family="Times,serif" font-size="14.00"> </text>
</g>
<!-- RL&#45;&gt;RLR -->
<g id="edge6" class="edge">
<title>RL&#45;&gt;RLR</title>
<path fill="none" stroke="black" d="M48.07,-59.87C50.78,-52.39 54.42,-42.33 57.63,-33.44"/>
<polygon fill="black" stroke="black" points="61.02,-34.38 61.13,-23.79 54.43,-32 61.02,-34.38"/>
</g>
</g>
</svg>
